<svg xmlns="http://www.w3.org/2000/svg" xmlns:xlink="http://www.w3.org/1999/xlink" width="550" zoomAndPan="magnify" viewBox="0 0 412.5 191.999996" height="256" preserveAspectRatio="xMidYMid meet" version="1.0"><defs><g/><clipPath id="52447330e1"><path d="M 0 0.117188 L 412 0.117188 L 412 191.882812 L 0 191.882812 Z M 0 0.117188 " clip-rule="nonzero"/></clipPath><clipPath id="0c16be39bb"><path d="M 88.273438 43.519531 L 289 43.519531 L 289 95 L 88.273438 95 Z M 88.273438 43.519531 " clip-rule="nonzero"/></clipPath><clipPath id="63f750190e"><path d="M 175 62 L 317.773438 62 L 317.773438 79 L 175 79 Z M 175 62 " clip-rule="nonzero"/></clipPath><clipPath id="006d11d9dd"><path d="M 270 85 L 309 85 L 309 104.269531 L 270 104.269531 Z M 270 85 " clip-rule="nonzero"/></clipPath><clipPath id="2c10541fa2"><path d="M 112 85 L 151 85 L 151 104.269531 L 112 104.269531 Z M 112 85 " clip-rule="nonzero"/></clipPath><clipPath id="fff7b3e922"><path d="M 308 43 L 315 43 L 315 66.113281 L 308 66.113281 Z M 308 43 " clip-rule="nonzero"/></clipPath><clipPath id="04ca2111b1"><path d="M 319 38.363281 L 324.796875 38.363281 L 324.796875 56 L 319 56 Z M 319 38.363281 " clip-rule="nonzero"/></clipPath><clipPath id="8f8abaebae"><path d="M 297.796875 38.363281 L 303 38.363281 L 303 56 L 297.796875 56 Z M 297.796875 38.363281 " clip-rule="nonzero"/></clipPath></defs><g clip-path="url(#52447330e1)"><path fill="#ffffff" d="M 0 0.117188 L 412.5 0.117188 L 412.5 199.617188 L 0 199.617188 Z M 0 0.117188 " fill-opacity="1" fill-rule="nonzero"/><path fill="#ffffff" d="M 0 0.117188 L 412.5 0.117188 L 412.5 192.117188 L 0 192.117188 Z M 0 0.117188 " fill-opacity="1" fill-rule="nonzero"/></g><g clip-path="url(#0c16be39bb)"><path fill="#000000" d="M 88.375 93.554688 C 92.054688 77.015625 111.472656 72.210938 125.933594 69.742188 C 130.449219 68.972656 134.992188 68.285156 139.527344 67.636719 C 146.402344 66.652344 153.535156 66.941406 160.246094 64.984375 C 166.152344 63.265625 171.46875 59.875 176.886719 57.039062 C 184.253906 53.179688 191.960938 49.84375 199.945312 47.460938 C 207.992188 45.046875 216.21875 43.773438 224.625 43.640625 C 229.746094 43.5625 234.863281 44.085938 239.933594 44.746094 C 254.3125 46.613281 268.304688 51.117188 281.871094 56.070312 C 283.847656 56.792969 285.820312 57.527344 287.789062 58.277344 C 288.1875 58.429688 288.769531 59.757812 288.105469 59.5625 C 273.195312 55.179688 258.253906 50.710938 242.796875 48.699219 C 230.625 47.117188 218.460938 47.292969 206.496094 50.28125 C 198.476562 52.28125 190.789062 55.375 183.351562 58.929688 C 177.976562 61.496094 172.863281 64.617188 167.425781 67.042969 C 164.738281 68.269531 161.945312 69.175781 159.046875 69.765625 C 155.277344 70.503906 151.4375 70.75 147.609375 70.984375 C 143.015625 71.265625 138.492188 71.789062 133.929688 72.351562 C 126.03125 73.328125 118.042969 74.324219 110.414062 76.683594 C 103.15625 78.929688 95.84375 82.542969 91.710938 89.171875 C 90.691406 90.835938 89.898438 92.601562 89.335938 94.46875 C 89.304688 94.613281 89.230469 94.667969 89.140625 94.664062 C 88.8125 94.683594 88.265625 93.910156 88.375 93.554688 Z M 88.375 93.554688 " fill-opacity="1" fill-rule="nonzero"/></g><g clip-path="url(#63f750190e)"><path fill="#000000" d="M 175.515625 72.289062 C 186.992188 74.613281 198.765625 75.59375 210.457031 74.640625 C 217.714844 74.050781 224.804688 72.4375 231.886719 70.8125 C 237.574219 69.507812 243.238281 68.097656 248.929688 66.808594 C 260.363281 64.21875 271.960938 62.21875 283.71875 62.128906 C 293.589844 62.054688 303.835938 62.351562 313.265625 65.554688 C 314.5625 65.996094 315.839844 66.484375 317.089844 67.039062 C 317.425781 67.207031 317.632812 67.476562 317.710938 67.84375 C 317.757812 68.074219 317.730469 68.425781 317.40625 68.324219 C 306.742188 65.03125 295.332031 65.222656 284.296875 65.832031 C 278.667969 66.148438 273.070312 66.757812 267.503906 67.664062 C 258.4375 69.128906 249.511719 71.324219 240.570312 73.402344 C 233.09375 75.140625 225.53125 76.9375 217.898438 77.851562 C 205.347656 79.359375 192.378906 78.195312 180.203125 74.882812 C 178.734375 74.484375 177.277344 74.046875 175.832031 73.578125 C 175.46875 73.503906 175.058594 72.640625 175.246094 72.367188 C 175.285156 72.277344 175.371094 72.242188 175.515625 72.289062 Z M 175.515625 72.289062 " fill-opacity="1" fill-rule="nonzero"/></g><path fill="#000000" d="M 139.539062 68.609375 C 145.386719 69.824219 151.289062 70.636719 157.246094 71.054688 C 163.167969 71.472656 169.089844 71.4375 175.003906 70.945312 C 177.945312 70.691406 180.871094 70.308594 183.761719 69.78125 L 184.839844 69.574219 L 185.933594 69.347656 L 188.117188 68.898438 C 188.847656 68.75 189.574219 68.59375 190.300781 68.433594 L 192.480469 67.953125 C 195.386719 67.304688 198.289062 66.632812 201.191406 65.941406 L 209.917969 63.871094 C 212.832031 63.191406 215.761719 62.53125 218.703125 61.914062 C 221.644531 61.308594 224.605469 60.746094 227.582031 60.269531 C 233.546875 59.289062 239.550781 58.707031 245.59375 58.515625 C 246.347656 58.5 247.101562 58.476562 247.855469 58.46875 L 250.113281 58.460938 C 251.617188 58.46875 253.117188 58.484375 254.621094 58.523438 C 257.628906 58.601562 260.640625 58.765625 263.640625 59.074219 C 265.140625 59.230469 266.636719 59.429688 268.125 59.667969 C 269.613281 59.910156 271.097656 60.183594 272.5625 60.535156 C 274.03125 60.882812 275.480469 61.285156 276.910156 61.746094 C 278.339844 62.214844 279.738281 62.75 281.109375 63.355469 C 275.390625 61.574219 269.460938 60.8125 263.53125 60.605469 C 260.566406 60.496094 257.59375 60.507812 254.621094 60.582031 C 253.132812 60.625 251.644531 60.671875 250.15625 60.730469 L 247.933594 60.835938 L 245.714844 60.972656 L 243.496094 61.136719 L 241.285156 61.339844 L 239.074219 61.570312 L 236.867188 61.835938 C 233.929688 62.214844 231 62.660156 228.082031 63.1875 C 225.164062 63.714844 222.253906 64.292969 219.351562 64.929688 C 216.441406 65.554688 213.539062 66.226562 210.632812 66.910156 L 201.898438 68.9375 C 198.976562 69.59375 196.046875 70.25 193.105469 70.84375 L 190.894531 71.28125 C 190.160156 71.425781 189.421875 71.566406 188.683594 71.707031 C 187.945312 71.84375 187.207031 71.980469 186.464844 72.109375 L 185.351562 72.300781 L 184.226562 72.488281 C 181.222656 72.949219 178.203125 73.25 175.167969 73.386719 C 169.117188 73.65625 163.09375 73.382812 157.089844 72.570312 C 151.121094 71.773438 145.269531 70.453125 139.539062 68.609375 Z M 139.539062 68.609375 " fill-opacity="1" fill-rule="nonzero"/><g clip-path="url(#006d11d9dd)"><path fill="#000000" d="M 308.28125 104.21875 C 308.585938 101.886719 308.347656 99.613281 307.558594 97.394531 C 306.730469 95.089844 305.457031 93.058594 303.738281 91.304688 C 301.945312 89.472656 299.863281 88.058594 297.496094 87.0625 C 296.296875 86.554688 295.058594 86.160156 293.78125 85.886719 C 291.1875 85.332031 288.582031 85.269531 285.964844 85.695312 C 284.675781 85.90625 283.421875 86.234375 282.195312 86.683594 C 279.78125 87.566406 277.628906 88.875 275.746094 90.617188 C 273.941406 92.285156 272.570312 94.25 271.632812 96.515625 C 270.734375 98.691406 270.382812 100.949219 270.574219 103.292969 C 270.875 101.046875 271.585938 98.9375 272.707031 96.960938 C 273.824219 94.988281 275.273438 93.289062 277.050781 91.871094 C 279.789062 89.683594 282.898438 88.339844 286.371094 87.832031 C 287.515625 87.660156 288.667969 87.589844 289.828125 87.621094 C 292.15625 87.671875 294.40625 88.117188 296.578125 88.957031 C 298.726562 89.789062 300.660156 90.964844 302.378906 92.488281 C 304.085938 93.992188 305.449219 95.757812 306.46875 97.785156 C 307.488281 99.816406 308.089844 101.957031 308.28125 104.21875 Z M 308.28125 104.21875 " fill-opacity="1" fill-rule="nonzero"/></g><g clip-path="url(#2c10541fa2)"><path fill="#000000" d="M 149.996094 104.21875 C 150.304688 101.886719 150.0625 99.613281 149.273438 97.394531 C 148.449219 95.089844 147.175781 93.058594 145.457031 91.304688 C 143.664062 89.472656 141.582031 88.058594 139.214844 87.0625 C 138.011719 86.554688 136.773438 86.160156 135.496094 85.886719 C 132.90625 85.332031 130.300781 85.269531 127.679688 85.695312 C 126.394531 85.90625 125.136719 86.234375 123.910156 86.683594 C 121.496094 87.566406 119.347656 88.875 117.464844 90.617188 C 115.660156 92.285156 114.289062 94.25 113.347656 96.515625 C 112.453125 98.691406 112.097656 100.949219 112.292969 103.292969 C 112.59375 101.046875 113.304688 98.9375 114.421875 96.960938 C 115.542969 94.988281 116.992188 93.289062 118.769531 91.871094 C 121.507812 89.683594 124.613281 88.339844 128.089844 87.832031 C 129.234375 87.660156 130.386719 87.589844 131.542969 87.621094 C 133.871094 87.671875 136.121094 88.121094 138.292969 88.957031 C 140.441406 89.789062 142.375 90.964844 144.09375 92.488281 C 145.800781 93.992188 147.164062 95.757812 148.183594 97.789062 C 149.203125 99.816406 149.808594 101.957031 149.996094 104.21875 Z M 149.996094 104.21875 " fill-opacity="1" fill-rule="nonzero"/></g><g clip-path="url(#fff7b3e922)"><path fill="#000000" d="M 313.34375 49.5 C 314.058594 48.789062 314.414062 47.929688 314.402344 46.921875 C 314.402344 45.023438 313.003906 43.476562 311.28125 43.476562 C 309.5625 43.476562 308.160156 45.023438 308.160156 46.921875 C 308.152344 47.929688 308.503906 48.789062 309.21875 49.5 L 309.21875 65.535156 C 309.21875 65.832031 309.441406 66.074219 309.710938 66.074219 L 312.855469 66.074219 C 313.125 66.074219 313.34375 65.832031 313.34375 65.535156 Z M 310.203125 64.992188 L 310.203125 50.148438 C 310.921875 50.453125 311.644531 50.453125 312.363281 50.148438 L 312.363281 64.992188 Z M 311.285156 44.558594 C 312.464844 44.558594 313.421875 45.621094 313.421875 46.921875 C 313.421875 48.222656 312.464844 49.28125 311.285156 49.28125 C 310.105469 49.28125 309.144531 48.222656 309.144531 46.921875 C 309.144531 45.617188 310.101562 44.558594 311.28125 44.558594 Z M 311.285156 44.558594 " fill-opacity="1" fill-rule="nonzero"/></g><g clip-path="url(#04ca2111b1)"><path fill="#000000" d="M 320.964844 38.414062 C 320.660156 38.421875 320.410156 38.539062 320.210938 38.769531 C 320.007812 39.011719 319.90625 39.292969 319.910156 39.609375 C 319.914062 39.929688 320.023438 40.207031 320.234375 40.441406 C 321.792969 42.117188 322.652344 44.355469 322.652344 46.753906 C 322.652344 49.152344 321.792969 51.394531 320.234375 53.070312 C 320.023438 53.304688 319.914062 53.582031 319.910156 53.898438 C 319.90625 54.21875 320.007812 54.496094 320.210938 54.738281 C 320.410156 54.972656 320.660156 55.089844 320.964844 55.097656 L 320.984375 55.097656 C 321.28125 55.09375 321.527344 54.984375 321.730469 54.765625 C 323.703125 52.640625 324.796875 49.792969 324.796875 46.753906 C 324.796875 43.714844 323.703125 40.871094 321.726562 38.746094 C 321.519531 38.527344 321.265625 38.414062 320.964844 38.414062 Z M 320.980469 54.226562 L 320.976562 54.226562 C 320.894531 54.222656 320.828125 54.191406 320.777344 54.128906 C 320.648438 53.980469 320.652344 53.832031 320.78125 53.6875 C 322.496094 51.847656 323.4375 49.386719 323.4375 46.75 C 323.4375 44.117188 322.496094 41.65625 320.78125 39.820312 C 320.652344 39.671875 320.652344 39.527344 320.777344 39.375 C 320.828125 39.3125 320.894531 39.28125 320.976562 39.28125 L 320.984375 39.28125 C 321.0625 39.28125 321.128906 39.3125 321.179688 39.371094 C 323.003906 41.328125 324.011719 43.949219 324.011719 46.753906 C 324.011719 49.558594 323.003906 52.179688 321.179688 54.140625 C 321.128906 54.199219 321.0625 54.226562 320.984375 54.226562 Z M 320.980469 54.226562 " fill-opacity="1" fill-rule="nonzero"/></g><path fill="#000000" d="M 315.910156 51.292969 C 315.910156 51.601562 316.007812 51.875 316.207031 52.109375 C 316.402344 52.34375 316.652344 52.464844 316.957031 52.476562 L 316.984375 52.476562 C 317.277344 52.472656 317.523438 52.363281 317.722656 52.148438 C 319.070312 50.726562 319.816406 48.808594 319.816406 46.753906 C 319.816406 44.699219 319.070312 42.78125 317.722656 41.359375 C 317.515625 41.136719 317.261719 41.027344 316.957031 41.035156 C 316.652344 41.042969 316.402344 41.164062 316.207031 41.398438 C 316 41.640625 315.902344 41.921875 315.910156 42.242188 C 315.914062 42.558594 316.023438 42.835938 316.242188 43.070312 C 317.164062 44.042969 317.671875 45.351562 317.671875 46.753906 C 317.671875 48.160156 317.164062 49.464844 316.242188 50.4375 C 316.019531 50.679688 315.910156 50.964844 315.910156 51.292969 Z M 316.785156 51.066406 C 317.863281 49.929688 318.457031 48.398438 318.457031 46.753906 C 318.457031 45.109375 317.863281 43.578125 316.785156 42.441406 C 316.652344 42.296875 316.648438 42.148438 316.777344 42 C 316.828125 41.9375 316.894531 41.902344 316.976562 41.902344 L 316.984375 41.902344 C 317.0625 41.902344 317.125 41.929688 317.179688 41.988281 C 318.371094 43.246094 319.027344 44.9375 319.027344 46.753906 C 319.027344 48.570312 318.371094 50.261719 317.179688 51.519531 C 317.125 51.582031 317.054688 51.609375 316.976562 51.605469 C 316.894531 51.601562 316.828125 51.570312 316.777344 51.507812 C 316.722656 51.445312 316.695312 51.375 316.699219 51.292969 C 316.695312 51.203125 316.726562 51.128906 316.785156 51.066406 Z M 316.785156 51.066406 " fill-opacity="1" fill-rule="nonzero"/><g clip-path="url(#8f8abaebae)"><path fill="#000000" d="M 301.605469 55.09375 C 301.917969 55.089844 302.171875 54.972656 302.375 54.734375 C 302.582031 54.492188 302.679688 54.210938 302.675781 53.894531 C 302.671875 53.578125 302.566406 53.300781 302.351562 53.0625 C 300.792969 51.390625 299.933594 49.148438 299.933594 46.75 C 299.933594 44.351562 300.792969 42.113281 302.351562 40.4375 C 302.566406 40.199219 302.671875 39.921875 302.675781 39.605469 C 302.679688 39.289062 302.582031 39.007812 302.375 38.765625 C 302.28125 38.65625 302.167969 38.570312 302.039062 38.507812 C 301.90625 38.445312 301.769531 38.410156 301.625 38.410156 C 301.476562 38.40625 301.339844 38.433594 301.207031 38.492188 C 301.074219 38.550781 300.957031 38.632812 300.859375 38.742188 C 298.882812 40.871094 297.792969 43.714844 297.792969 46.753906 C 297.792969 49.796875 298.882812 52.640625 300.859375 54.761719 C 301.0625 54.980469 301.308594 55.09375 301.605469 55.09375 Z M 301.605469 39.28125 C 301.6875 39.28125 301.757812 39.3125 301.8125 39.378906 C 301.9375 39.527344 301.933594 39.675781 301.804688 39.820312 C 300.089844 41.65625 299.148438 44.121094 299.148438 46.753906 C 299.148438 49.386719 300.089844 51.851562 301.804688 53.6875 C 301.9375 53.835938 301.9375 53.984375 301.8125 54.132812 C 301.757812 54.195312 301.691406 54.226562 301.609375 54.226562 C 301.53125 54.230469 301.460938 54.199219 301.410156 54.136719 C 299.582031 52.179688 298.578125 49.558594 298.578125 46.753906 C 298.578125 43.949219 299.582031 41.328125 301.410156 39.371094 C 301.460938 39.3125 301.527344 39.28125 301.605469 39.28125 Z M 301.605469 39.28125 " fill-opacity="1" fill-rule="nonzero"/></g><path fill="#000000" d="M 304.867188 52.148438 C 305.0625 52.363281 305.3125 52.472656 305.605469 52.476562 L 305.632812 52.476562 C 305.933594 52.464844 306.183594 52.34375 306.378906 52.109375 C 306.585938 51.867188 306.683594 51.585938 306.675781 51.269531 C 306.667969 50.949219 306.558594 50.675781 306.347656 50.4375 C 305.425781 49.464844 304.917969 48.15625 304.917969 46.753906 C 304.917969 45.351562 305.421875 44.042969 306.34375 43.070312 C 306.558594 42.835938 306.667969 42.558594 306.675781 42.242188 C 306.679688 41.921875 306.582031 41.640625 306.378906 41.398438 C 306.183594 41.164062 305.933594 41.042969 305.628906 41.035156 C 305.324219 41.027344 305.070312 41.136719 304.867188 41.359375 C 303.515625 42.78125 302.773438 44.699219 302.773438 46.753906 C 302.773438 48.808594 303.515625 50.726562 304.867188 52.148438 Z M 305.605469 41.902344 L 305.613281 41.902344 C 305.691406 41.902344 305.757812 41.9375 305.8125 42 C 305.867188 42.0625 305.890625 42.136719 305.890625 42.222656 C 305.886719 42.304688 305.859375 42.378906 305.800781 42.441406 C 304.722656 43.578125 304.128906 45.109375 304.128906 46.753906 C 304.128906 48.398438 304.722656 49.925781 305.800781 51.066406 C 305.933594 51.210938 305.9375 51.359375 305.808594 51.507812 C 305.757812 51.570312 305.691406 51.605469 305.613281 51.605469 C 305.53125 51.609375 305.460938 51.578125 305.40625 51.519531 C 304.214844 50.261719 303.558594 48.570312 303.558594 46.753906 C 303.558594 44.9375 304.214844 43.246094 305.40625 41.988281 C 305.460938 41.929688 305.527344 41.902344 305.605469 41.902344 Z M 305.605469 41.902344 " fill-opacity="1" fill-rule="nonzero"/><g fill="#000000" fill-opacity="1"><g transform="translate(85.939701, 130.078444)"><g><path d="M 9.949219 0 L 9.949219 -31.898438 L 3.570312 -31.898438 L 3.570312 0 Z M 9.949219 0 "/></g></g></g><g fill="#000000" fill-opacity="1"><g transform="translate(106.551393, 130.078444)"><g><path d="M 9.949219 -17.355469 L 26.097656 0.667969 L 27.792969 0.667969 L 27.792969 -31.855469 L 21.371094 -31.855469 L 21.371094 -13.832031 L 5.265625 -32.566406 L 3.570312 -32.566406 L 3.570312 0 L 9.949219 0 Z M 9.949219 -17.355469 "/></g></g></g><g fill="#000000" fill-opacity="1"><g transform="translate(145.007959, 130.078444)"><g><path d="M 18.203125 -18.382812 L 5.621094 -32.390625 L 3.570312 -32.390625 L 3.570312 0 L 10.039062 0 L 10.039062 -17.800781 L 18.203125 -9.234375 L 26.367188 -17.800781 L 26.324219 0 L 32.792969 0 L 32.792969 -32.390625 L 30.785156 -32.390625 Z M 18.203125 -18.382812 "/></g></g></g><g fill="#000000" fill-opacity="1"><g transform="translate(188.461083, 130.078444)"><g><path d="M 18.917969 0.445312 C 40.867188 0.445312 40.867188 -32.433594 18.917969 -32.433594 C -3.035156 -32.433594 -3.035156 0.445312 18.917969 0.445312 Z M 18.917969 -6.15625 C 6.15625 -6.15625 6.15625 -25.875 18.917969 -25.875 C 31.675781 -25.875 31.675781 -6.15625 18.917969 -6.15625 Z M 18.917969 -6.15625 "/></g></g></g><g fill="#000000" fill-opacity="1"><g transform="translate(233.297184, 130.078444)"><g><path d="M 13.472656 0.667969 L 14.902344 0.667969 L 28.105469 -31.898438 L 20.746094 -31.898438 L 16.460938 -21.058594 L 14.1875 -14.679688 L 11.867188 -21.28125 L 7.628906 -31.898438 L 0.269531 -31.898438 Z M 13.472656 0.667969 "/></g></g></g><g fill="#000000" fill-opacity="1"><g transform="translate(268.764749, 130.078444)"><g><path d="M 0.714844 0 L 7.941406 0 L 9.191406 -3.433594 L 19.765625 -3.433594 L 21.058594 0 L 28.242188 0 L 14.8125 -33.058594 L 14.144531 -33.058594 Z M 11.511719 -9.414062 L 14.5 -17.710938 L 17.398438 -9.414062 Z M 11.511719 -9.414062 "/></g></g></g><g fill="#000000" fill-opacity="1"><g transform="translate(304.946097, 130.078444)"><g><path d="M 3.570312 -31.898438 L 3.570312 0 L 20.078125 0 L 20.078125 -6.378906 L 9.949219 -6.378906 L 9.949219 -31.898438 Z M 3.570312 -31.898438 "/></g></g></g><g fill="#000000" fill-opacity="1"><g transform="translate(90.282389, 151.411281)"><g><path d="M 3.4375 -5.390625 L 4.15625 -5.390625 C 4.820312 -5.390625 5.316406 -5.519531 5.640625 -5.78125 C 5.972656 -6.050781 6.140625 -6.4375 6.140625 -6.9375 C 6.140625 -7.445312 6 -7.820312 5.71875 -8.0625 C 5.445312 -8.300781 5.015625 -8.421875 4.421875 -8.421875 L 3.4375 -8.421875 Z M 8.328125 -7.015625 C 8.328125 -5.921875 7.984375 -5.082031 7.296875 -4.5 C 6.609375 -3.914062 5.632812 -3.625 4.375 -3.625 L 3.4375 -3.625 L 3.4375 0 L 1.28125 0 L 1.28125 -10.1875 L 4.546875 -10.1875 C 5.773438 -10.1875 6.710938 -9.921875 7.359375 -9.390625 C 8.003906 -8.859375 8.328125 -8.066406 8.328125 -7.015625 Z M 8.328125 -7.015625 "/></g></g></g><g fill="#000000" fill-opacity="1"><g transform="translate(101.510918, 151.411281)"><g><path d="M 3.4375 -5.671875 L 4.140625 -5.671875 C 4.828125 -5.671875 5.332031 -5.785156 5.65625 -6.015625 C 5.976562 -6.242188 6.140625 -6.597656 6.140625 -7.078125 C 6.140625 -7.566406 5.972656 -7.910156 5.640625 -8.109375 C 5.304688 -8.316406 4.789062 -8.421875 4.09375 -8.421875 L 3.4375 -8.421875 Z M 3.4375 -3.90625 L 3.4375 0 L 1.28125 0 L 1.28125 -10.1875 L 4.25 -10.1875 C 5.632812 -10.1875 6.660156 -9.9375 7.328125 -9.4375 C 7.992188 -8.9375 8.328125 -8.171875 8.328125 -7.140625 C 8.328125 -6.535156 8.160156 -6 7.828125 -5.53125 C 7.492188 -5.070312 7.023438 -4.707031 6.421875 -4.4375 C 7.960938 -2.144531 8.960938 -0.664062 9.421875 0 L 7.03125 0 L 4.59375 -3.90625 Z M 3.4375 -3.90625 "/></g></g></g><g fill="#000000" fill-opacity="1"><g transform="translate(113.199808, 151.411281)"><g><path d="M 10.53125 -5.109375 C 10.53125 -3.421875 10.113281 -2.125 9.28125 -1.21875 C 8.445312 -0.3125 7.25 0.140625 5.6875 0.140625 C 4.125 0.140625 2.921875 -0.3125 2.078125 -1.21875 C 1.242188 -2.125 0.828125 -3.425781 0.828125 -5.125 C 0.828125 -6.820312 1.242188 -8.117188 2.078125 -9.015625 C 2.921875 -9.910156 4.128906 -10.359375 5.703125 -10.359375 C 7.265625 -10.359375 8.457031 -9.90625 9.28125 -9 C 10.113281 -8.101562 10.53125 -6.804688 10.53125 -5.109375 Z M 3.09375 -5.109375 C 3.09375 -3.972656 3.304688 -3.113281 3.734375 -2.53125 C 4.171875 -1.957031 4.820312 -1.671875 5.6875 -1.671875 C 7.40625 -1.671875 8.265625 -2.816406 8.265625 -5.109375 C 8.265625 -7.410156 7.410156 -8.5625 5.703125 -8.5625 C 4.835938 -8.5625 4.1875 -8.269531 3.75 -7.6875 C 3.3125 -7.101562 3.09375 -6.242188 3.09375 -5.109375 Z M 3.09375 -5.109375 "/></g></g></g><g fill="#000000" fill-opacity="1"><g transform="translate(126.827794, 151.411281)"><g><path d="M 5.15625 -5.71875 L 9.203125 -5.71875 L 9.203125 -0.4375 C 8.546875 -0.226562 7.925781 -0.0820312 7.34375 0 C 6.769531 0.09375 6.179688 0.140625 5.578125 0.140625 C 4.035156 0.140625 2.859375 -0.3125 2.046875 -1.21875 C 1.234375 -2.125 0.828125 -3.421875 0.828125 -5.109375 C 0.828125 -6.753906 1.296875 -8.035156 2.234375 -8.953125 C 3.179688 -9.878906 4.488281 -10.34375 6.15625 -10.34375 C 7.195312 -10.34375 8.207031 -10.132812 9.1875 -9.71875 L 8.46875 -7.984375 C 7.71875 -8.359375 6.941406 -8.546875 6.140625 -8.546875 C 5.203125 -8.546875 4.453125 -8.226562 3.890625 -7.59375 C 3.328125 -6.96875 3.046875 -6.125 3.046875 -5.0625 C 3.046875 -3.957031 3.273438 -3.113281 3.734375 -2.53125 C 4.191406 -1.945312 4.851562 -1.65625 5.71875 -1.65625 C 6.164062 -1.65625 6.617188 -1.703125 7.078125 -1.796875 L 7.078125 -3.921875 L 5.15625 -3.921875 Z M 5.15625 -5.71875 "/></g></g></g><g fill="#000000" fill-opacity="1"><g transform="translate(139.43044, 151.411281)"><g><path d="M 3.4375 -5.671875 L 4.140625 -5.671875 C 4.828125 -5.671875 5.332031 -5.785156 5.65625 -6.015625 C 5.976562 -6.242188 6.140625 -6.597656 6.140625 -7.078125 C 6.140625 -7.566406 5.972656 -7.910156 5.640625 -8.109375 C 5.304688 -8.316406 4.789062 -8.421875 4.09375 -8.421875 L 3.4375 -8.421875 Z M 3.4375 -3.90625 L 3.4375 0 L 1.28125 0 L 1.28125 -10.1875 L 4.25 -10.1875 C 5.632812 -10.1875 6.660156 -9.9375 7.328125 -9.4375 C 7.992188 -8.9375 8.328125 -8.171875 8.328125 -7.140625 C 8.328125 -6.535156 8.160156 -6 7.828125 -5.53125 C 7.492188 -5.070312 7.023438 -4.707031 6.421875 -4.4375 C 7.960938 -2.144531 8.960938 -0.664062 9.421875 0 L 7.03125 0 L 4.59375 -3.90625 Z M 3.4375 -3.90625 "/></g></g></g><g fill="#000000" fill-opacity="1"><g transform="translate(151.119331, 151.411281)"><g><path d="M 7.53125 0 L 6.78125 -2.421875 L 3.0625 -2.421875 L 2.328125 0 L 0 0 L 3.59375 -10.234375 L 6.234375 -10.234375 L 9.859375 0 Z M 6.265625 -4.234375 C 5.585938 -6.429688 5.203125 -7.675781 5.109375 -7.96875 C 5.023438 -8.257812 4.96875 -8.488281 4.9375 -8.65625 C 4.78125 -8.0625 4.335938 -6.585938 3.609375 -4.234375 Z M 6.265625 -4.234375 "/></g></g></g><g fill="#000000" fill-opacity="1"><g transform="translate(163.233714, 151.411281)"><g><path d="M 5.59375 0 L 3.140625 -8 L 3.078125 -8 C 3.171875 -6.375 3.21875 -5.285156 3.21875 -4.734375 L 3.21875 0 L 1.28125 0 L 1.28125 -10.1875 L 4.21875 -10.1875 L 6.640625 -2.40625 L 6.6875 -2.40625 L 9.234375 -10.1875 L 12.1875 -10.1875 L 12.1875 0 L 10.171875 0 L 10.171875 -4.828125 C 10.171875 -5.054688 10.171875 -5.316406 10.171875 -5.609375 C 10.179688 -5.910156 10.210938 -6.703125 10.265625 -7.984375 L 10.203125 -7.984375 L 7.578125 0 Z M 5.59375 0 "/></g></g></g><g fill="#000000" fill-opacity="1"><g transform="translate(178.961237, 151.411281)"><g><path d="M 7.53125 0 L 6.78125 -2.421875 L 3.0625 -2.421875 L 2.328125 0 L 0 0 L 3.59375 -10.234375 L 6.234375 -10.234375 L 9.859375 0 Z M 6.265625 -4.234375 C 5.585938 -6.429688 5.203125 -7.675781 5.109375 -7.96875 C 5.023438 -8.257812 4.96875 -8.488281 4.9375 -8.65625 C 4.78125 -8.0625 4.335938 -6.585938 3.609375 -4.234375 Z M 6.265625 -4.234375 "/></g></g></g><g fill="#000000" fill-opacity="1"><g transform="translate(191.075614, 151.411281)"><g><path d="M 5.609375 -8.546875 C 4.796875 -8.546875 4.164062 -8.238281 3.71875 -7.625 C 3.269531 -7.007812 3.046875 -6.15625 3.046875 -5.0625 C 3.046875 -2.789062 3.898438 -1.65625 5.609375 -1.65625 C 6.328125 -1.65625 7.195312 -1.835938 8.21875 -2.203125 L 8.21875 -0.390625 C 7.375 -0.0351562 6.4375 0.140625 5.40625 0.140625 C 3.925781 0.140625 2.789062 -0.304688 2 -1.203125 C 1.21875 -2.109375 0.828125 -3.398438 0.828125 -5.078125 C 0.828125 -6.140625 1.019531 -7.066406 1.40625 -7.859375 C 1.789062 -8.660156 2.34375 -9.273438 3.0625 -9.703125 C 3.789062 -10.128906 4.640625 -10.34375 5.609375 -10.34375 C 6.597656 -10.34375 7.59375 -10.101562 8.59375 -9.625 L 7.90625 -7.859375 C 7.519531 -8.046875 7.132812 -8.207031 6.75 -8.34375 C 6.363281 -8.476562 5.984375 -8.546875 5.609375 -8.546875 Z M 5.609375 -8.546875 "/></g></g></g><g fill="#000000" fill-opacity="1"><g transform="translate(202.436678, 151.411281)"><g><path d="M 1.28125 0 L 1.28125 -10.1875 L 3.4375 -10.1875 L 3.4375 0 Z M 1.28125 0 "/></g></g></g><g fill="#000000" fill-opacity="1"><g transform="translate(209.424303, 151.411281)"><g><path d="M 10.53125 -5.109375 C 10.53125 -3.421875 10.113281 -2.125 9.28125 -1.21875 C 8.445312 -0.3125 7.25 0.140625 5.6875 0.140625 C 4.125 0.140625 2.921875 -0.3125 2.078125 -1.21875 C 1.242188 -2.125 0.828125 -3.425781 0.828125 -5.125 C 0.828125 -6.820312 1.242188 -8.117188 2.078125 -9.015625 C 2.921875 -9.910156 4.128906 -10.359375 5.703125 -10.359375 C 7.265625 -10.359375 8.457031 -9.90625 9.28125 -9 C 10.113281 -8.101562 10.53125 -6.804688 10.53125 -5.109375 Z M 3.09375 -5.109375 C 3.09375 -3.972656 3.304688 -3.113281 3.734375 -2.53125 C 4.171875 -1.957031 4.820312 -1.671875 5.6875 -1.671875 C 7.40625 -1.671875 8.265625 -2.816406 8.265625 -5.109375 C 8.265625 -7.410156 7.410156 -8.5625 5.703125 -8.5625 C 4.835938 -8.5625 4.1875 -8.269531 3.75 -7.6875 C 3.3125 -7.101562 3.09375 -6.242188 3.09375 -5.109375 Z M 4.578125 -11.015625 L 4.578125 -11.203125 C 5.378906 -12.128906 5.925781 -12.828125 6.21875 -13.296875 L 8.609375 -13.296875 L 8.609375 -13.15625 C 8.359375 -12.914062 7.941406 -12.554688 7.359375 -12.078125 C 6.773438 -11.597656 6.320312 -11.242188 6 -11.015625 Z M 4.578125 -11.015625 "/></g></g></g><g fill="#000000" fill-opacity="1"><g transform="translate(223.052293, 151.411281)"><g><path d="M 10.328125 0 L 7.578125 0 L 3.140625 -7.71875 L 3.078125 -7.71875 C 3.171875 -6.351562 3.21875 -5.378906 3.21875 -4.796875 L 3.21875 0 L 1.28125 0 L 1.28125 -10.1875 L 4.015625 -10.1875 L 8.4375 -2.5625 L 8.484375 -2.5625 C 8.410156 -3.882812 8.375 -4.820312 8.375 -5.375 L 8.375 -10.1875 L 10.328125 -10.1875 Z M 10.328125 0 "/></g></g></g><g fill="#000000" fill-opacity="1"><g transform="translate(236.924419, 151.411281)"><g/></g></g><g fill="#000000" fill-opacity="1"><g transform="translate(242.893668, 151.411281)"><g><path d="M 9.734375 -5.1875 C 9.734375 -3.507812 9.253906 -2.222656 8.296875 -1.328125 C 7.347656 -0.441406 5.972656 0 4.171875 0 L 1.28125 0 L 1.28125 -10.1875 L 4.484375 -10.1875 C 6.148438 -10.1875 7.441406 -9.75 8.359375 -8.875 C 9.273438 -8 9.734375 -6.769531 9.734375 -5.1875 Z M 7.5 -5.140625 C 7.5 -7.328125 6.53125 -8.421875 4.59375 -8.421875 L 3.4375 -8.421875 L 3.4375 -1.78125 L 4.375 -1.78125 C 6.457031 -1.78125 7.5 -2.898438 7.5 -5.140625 Z M 7.5 -5.140625 "/></g></g></g><g fill="#000000" fill-opacity="1"><g transform="translate(255.726489, 151.411281)"><g><path d="M 7.15625 0 L 1.28125 0 L 1.28125 -10.1875 L 7.15625 -10.1875 L 7.15625 -8.421875 L 3.4375 -8.421875 L 3.4375 -6.1875 L 6.890625 -6.1875 L 6.890625 -4.421875 L 3.4375 -4.421875 L 3.4375 -1.78125 L 7.15625 -1.78125 Z M 7.15625 0 "/></g></g></g><g fill="#000000" fill-opacity="1"><g transform="translate(265.985475, 151.411281)"><g/></g></g><g fill="#000000" fill-opacity="1"><g transform="translate(271.954725, 151.411281)"><g><path d="M 5.609375 -8.546875 C 4.796875 -8.546875 4.164062 -8.238281 3.71875 -7.625 C 3.269531 -7.007812 3.046875 -6.15625 3.046875 -5.0625 C 3.046875 -2.789062 3.898438 -1.65625 5.609375 -1.65625 C 6.328125 -1.65625 7.195312 -1.835938 8.21875 -2.203125 L 8.21875 -0.390625 C 7.375 -0.0351562 6.4375 0.140625 5.40625 0.140625 C 3.925781 0.140625 2.789062 -0.304688 2 -1.203125 C 1.21875 -2.109375 0.828125 -3.398438 0.828125 -5.078125 C 0.828125 -6.140625 1.019531 -7.066406 1.40625 -7.859375 C 1.789062 -8.660156 2.34375 -9.273438 3.0625 -9.703125 C 3.789062 -10.128906 4.640625 -10.34375 5.609375 -10.34375 C 6.597656 -10.34375 7.59375 -10.101562 8.59375 -9.625 L 7.90625 -7.859375 C 7.519531 -8.046875 7.132812 -8.207031 6.75 -8.34375 C 6.363281 -8.476562 5.984375 -8.546875 5.609375 -8.546875 Z M 5.609375 -8.546875 "/></g></g></g><g fill="#000000" fill-opacity="1"><g transform="translate(283.315777, 151.411281)"><g><path d="M 9.640625 0 L 7.484375 0 L 7.484375 -4.40625 L 3.4375 -4.40625 L 3.4375 0 L 1.28125 0 L 1.28125 -10.1875 L 3.4375 -10.1875 L 3.4375 -6.203125 L 7.484375 -6.203125 L 7.484375 -10.1875 L 9.640625 -10.1875 Z M 9.640625 0 "/></g></g></g><g fill="#000000" fill-opacity="1"><g transform="translate(296.504337, 151.411281)"><g><path d="M 1.28125 0 L 1.28125 -10.1875 L 3.4375 -10.1875 L 3.4375 0 Z M 1.28125 0 "/></g></g></g><g fill="#000000" fill-opacity="1"><g transform="translate(303.491961, 151.411281)"><g><path d="M 3.4375 -5.390625 L 4.15625 -5.390625 C 4.820312 -5.390625 5.316406 -5.519531 5.640625 -5.78125 C 5.972656 -6.050781 6.140625 -6.4375 6.140625 -6.9375 C 6.140625 -7.445312 6 -7.820312 5.71875 -8.0625 C 5.445312 -8.300781 5.015625 -8.421875 4.421875 -8.421875 L 3.4375 -8.421875 Z M 8.328125 -7.015625 C 8.328125 -5.921875 7.984375 -5.082031 7.296875 -4.5 C 6.609375 -3.914062 5.632812 -3.625 4.375 -3.625 L 3.4375 -3.625 L 3.4375 0 L 1.28125 0 L 1.28125 -10.1875 L 4.546875 -10.1875 C 5.773438 -10.1875 6.710938 -9.921875 7.359375 -9.390625 C 8.003906 -8.859375 8.328125 -8.066406 8.328125 -7.015625 Z M 8.328125 -7.015625 "/></g></g></g><g fill="#000000" fill-opacity="1"><g transform="translate(314.720491, 151.411281)"><g><path d="M 7.296875 -2.828125 C 7.296875 -1.910156 6.960938 -1.1875 6.296875 -0.65625 C 5.640625 -0.125 4.722656 0.140625 3.546875 0.140625 C 2.453125 0.140625 1.488281 -0.0625 0.65625 -0.46875 L 0.65625 -2.484375 C 1.34375 -2.171875 1.921875 -1.953125 2.390625 -1.828125 C 2.867188 -1.703125 3.304688 -1.640625 3.703125 -1.640625 C 4.179688 -1.640625 4.546875 -1.726562 4.796875 -1.90625 C 5.054688 -2.09375 5.1875 -2.363281 5.1875 -2.71875 C 5.1875 -2.925781 5.128906 -3.109375 5.015625 -3.265625 C 4.898438 -3.421875 4.734375 -3.566406 4.515625 -3.703125 C 4.304688 -3.847656 3.867188 -4.082031 3.203125 -4.40625 C 2.578125 -4.695312 2.109375 -4.972656 1.796875 -5.234375 C 1.484375 -5.503906 1.234375 -5.816406 1.046875 -6.171875 C 0.867188 -6.535156 0.78125 -6.957031 0.78125 -7.4375 C 0.78125 -8.34375 1.082031 -9.050781 1.6875 -9.5625 C 2.300781 -10.082031 3.144531 -10.34375 4.21875 -10.34375 C 4.75 -10.34375 5.253906 -10.28125 5.734375 -10.15625 C 6.222656 -10.03125 6.726562 -9.851562 7.25 -9.625 L 6.5625 -7.9375 C 6.007812 -8.164062 5.554688 -8.320312 5.203125 -8.40625 C 4.847656 -8.5 4.5 -8.546875 4.15625 -8.546875 C 3.75 -8.546875 3.4375 -8.445312 3.21875 -8.25 C 3 -8.0625 2.890625 -7.816406 2.890625 -7.515625 C 2.890625 -7.316406 2.929688 -7.144531 3.015625 -7 C 3.109375 -6.863281 3.25 -6.726562 3.4375 -6.59375 C 3.632812 -6.46875 4.09375 -6.234375 4.8125 -5.890625 C 5.757812 -5.429688 6.410156 -4.972656 6.765625 -4.515625 C 7.117188 -4.054688 7.296875 -3.492188 7.296875 -2.828125 Z M 7.296875 -2.828125 "/></g></g></g></svg>