<svg xmlns="http://www.w3.org/2000/svg" xmlns:xlink="http://www.w3.org/1999/xlink" width="413" zoomAndPan="magnify" viewBox="0 0 309.75 156.749997" height="209" preserveAspectRatio="xMidYMid meet" version="1.0"><defs><g/><clipPath id="454dc56c25"><path d="M 0.121094 0 L 309.378906 0 L 309.378906 156.5 L 0.121094 156.5 Z M 0.121094 0 " clip-rule="nonzero"/></clipPath><clipPath id="ccc6df1d83"><path d="M 73 41.472656 L 212 41.472656 L 212 78 L 73 78 Z M 73 41.472656 " clip-rule="nonzero"/></clipPath><clipPath id="2bb44255eb"><path d="M 133 54 L 231.859375 54 L 231.859375 67 L 133 67 Z M 133 54 " clip-rule="nonzero"/></clipPath><clipPath id="e7bd06aa54"><path d="M 199 70 L 226 70 L 226 84.191406 L 199 84.191406 Z M 199 70 " clip-rule="nonzero"/></clipPath><clipPath id="882b85e161"><path d="M 89 70 L 116 70 L 116 84.191406 L 89 84.191406 Z M 89 70 " clip-rule="nonzero"/></clipPath><clipPath id="9a87bf11f7"><path d="M 225 41 L 230 41 L 230 57.378906 L 225 57.378906 Z M 225 41 " clip-rule="nonzero"/></clipPath><clipPath id="fea20a9eda"><path d="M 233 37.894531 L 237.175781 37.894531 L 237.175781 50 L 233 50 Z M 233 37.894531 " clip-rule="nonzero"/></clipPath><clipPath id="e29bdf8c7d"><path d="M 218.441406 37.894531 L 222 37.894531 L 222 50 L 218.441406 50 Z M 218.441406 37.894531 " clip-rule="nonzero"/></clipPath></defs><g clip-path="url(#454dc56c25)"><path fill="#ffffff" d="M 0.121094 0 L 309.628906 0 L 309.628906 163.371094 L 0.121094 163.371094 Z M 0.121094 0 " fill-opacity="1" fill-rule="nonzero"/><path fill="#ffffff" d="M 0.121094 0 L 309.628906 0 L 309.628906 156.625 L 0.121094 156.625 Z M 0.121094 0 " fill-opacity="1" fill-rule="nonzero"/></g><g clip-path="url(#ccc6df1d83)"><path fill="#ffffff" d="M 73.050781 76.65625 C 75.601562 65.027344 89.042969 61.648438 99.050781 59.910156 C 102.179688 59.367188 105.324219 58.886719 108.464844 58.429688 C 113.222656 57.738281 118.160156 57.941406 122.808594 56.566406 C 126.894531 55.355469 130.574219 52.972656 134.324219 50.976562 C 139.425781 48.261719 144.761719 45.917969 150.289062 44.242188 C 155.859375 42.542969 161.554688 41.648438 167.371094 41.554688 C 170.917969 41.5 174.460938 41.867188 177.972656 42.332031 C 187.925781 43.644531 197.613281 46.8125 207.003906 50.296875 C 208.371094 50.804688 209.738281 51.320312 211.101562 51.847656 C 211.375 51.957031 211.777344 52.890625 211.316406 52.753906 C 200.996094 49.667969 190.652344 46.527344 179.953125 45.113281 C 171.527344 44 163.105469 44.121094 154.824219 46.222656 C 149.273438 47.632812 143.949219 49.804688 138.800781 52.308594 C 135.082031 54.113281 131.539062 56.304688 127.777344 58.015625 C 125.914062 58.875 123.980469 59.511719 121.976562 59.925781 C 119.367188 60.445312 116.707031 60.617188 114.058594 60.785156 C 110.878906 60.984375 107.746094 61.351562 104.589844 61.746094 C 99.121094 62.433594 93.589844 63.132812 88.308594 64.792969 C 83.285156 66.371094 78.222656 68.914062 75.363281 73.574219 C 74.65625 74.746094 74.105469 75.988281 73.71875 77.300781 C 73.695312 77.402344 73.644531 77.441406 73.582031 77.4375 C 73.355469 77.449219 72.976562 76.90625 73.050781 76.65625 Z M 73.050781 76.65625 " fill-opacity="1" fill-rule="nonzero"/></g><g clip-path="url(#2bb44255eb)"><path fill="#ffffff" d="M 133.378906 61.703125 C 141.320312 63.339844 149.472656 64.027344 157.5625 63.359375 C 162.589844 62.941406 167.5 61.808594 172.398438 60.664062 C 176.335938 59.746094 180.257812 58.753906 184.199219 57.847656 C 192.113281 56.027344 200.144531 54.621094 208.28125 54.558594 C 215.113281 54.503906 222.210938 54.710938 228.738281 56.96875 C 229.632812 57.277344 230.515625 57.621094 231.382812 58.007812 C 231.617188 58.128906 231.757812 58.320312 231.8125 58.578125 C 231.847656 58.738281 231.828125 58.984375 231.601562 58.914062 C 224.21875 56.597656 216.324219 56.730469 208.683594 57.160156 C 204.785156 57.382812 200.910156 57.8125 197.058594 58.449219 C 190.78125 59.480469 184.601562 61.023438 178.414062 62.484375 C 173.238281 63.707031 168 64.96875 162.714844 65.617188 C 154.027344 66.675781 145.050781 65.855469 136.621094 63.527344 C 135.605469 63.246094 134.597656 62.941406 133.597656 62.609375 C 133.34375 62.554688 133.0625 61.949219 133.191406 61.757812 C 133.21875 61.695312 133.277344 61.667969 133.378906 61.703125 Z M 133.378906 61.703125 " fill-opacity="1" fill-rule="nonzero"/></g><path fill="#ffffff" d="M 108.46875 59.113281 C 112.519531 59.96875 116.605469 60.542969 120.730469 60.832031 C 124.828125 61.128906 128.925781 61.101562 133.023438 60.757812 C 135.058594 60.578125 137.085938 60.3125 139.085938 59.9375 L 139.832031 59.792969 L 140.589844 59.636719 L 142.101562 59.316406 C 142.605469 59.210938 143.109375 59.105469 143.613281 58.992188 L 145.121094 58.652344 C 147.132812 58.195312 149.144531 57.722656 151.152344 57.238281 L 157.191406 55.78125 C 159.210938 55.304688 161.238281 54.839844 163.273438 54.40625 C 165.3125 53.980469 167.359375 53.585938 169.421875 53.25 C 173.550781 52.5625 177.707031 52.148438 181.886719 52.015625 C 182.410156 52.003906 182.933594 51.988281 183.453125 51.984375 L 185.019531 51.976562 C 186.058594 51.984375 187.097656 51.992188 188.140625 52.023438 C 190.222656 52.078125 192.304688 52.191406 194.382812 52.40625 C 195.421875 52.519531 196.457031 52.660156 197.488281 52.828125 C 198.519531 52.996094 199.542969 53.191406 200.558594 53.4375 C 201.574219 53.679688 202.578125 53.964844 203.570312 54.289062 C 204.558594 54.617188 205.527344 54.992188 206.476562 55.421875 C 202.515625 54.164062 198.410156 53.632812 194.308594 53.484375 C 192.253906 53.40625 190.199219 53.417969 188.140625 53.46875 C 187.109375 53.5 186.078125 53.53125 185.046875 53.574219 L 183.507812 53.648438 L 181.972656 53.742188 L 180.4375 53.859375 L 178.90625 54.003906 L 177.375 54.164062 L 175.847656 54.351562 C 173.816406 54.617188 171.789062 54.929688 169.769531 55.300781 C 167.746094 55.671875 165.730469 56.078125 163.722656 56.527344 C 161.707031 56.96875 159.699219 57.4375 157.6875 57.917969 L 151.640625 59.347656 C 149.617188 59.808594 147.589844 60.269531 145.554688 60.683594 L 144.023438 60.996094 C 143.511719 61.097656 143.003906 61.195312 142.492188 61.292969 C 141.980469 61.390625 141.46875 61.484375 140.957031 61.574219 L 140.1875 61.710938 L 139.40625 61.839844 C 137.328125 62.167969 135.238281 62.378906 133.136719 62.476562 C 128.949219 62.664062 124.777344 62.472656 120.621094 61.898438 C 116.488281 61.339844 112.4375 60.410156 108.46875 59.113281 Z M 108.46875 59.113281 " fill-opacity="1" fill-rule="nonzero"/><g clip-path="url(#e7bd06aa54)"><path fill="#ffffff" d="M 225.285156 84.15625 C 225.496094 82.519531 225.332031 80.917969 224.785156 79.359375 C 224.210938 77.738281 223.332031 76.308594 222.140625 75.078125 C 220.898438 73.789062 219.457031 72.792969 217.820312 72.089844 C 216.988281 71.734375 216.132812 71.457031 215.246094 71.265625 C 213.453125 70.875 211.648438 70.832031 209.835938 71.128906 C 208.945312 71.277344 208.074219 71.511719 207.226562 71.828125 C 205.554688 72.445312 204.066406 73.367188 202.761719 74.59375 C 201.515625 75.765625 200.566406 77.148438 199.914062 78.738281 C 199.292969 80.269531 199.050781 81.859375 199.183594 83.507812 C 199.390625 81.929688 199.882812 80.445312 200.660156 79.054688 C 201.433594 77.664062 202.4375 76.472656 203.667969 75.472656 C 205.5625 73.9375 207.714844 72.988281 210.117188 72.632812 C 210.910156 72.511719 211.710938 72.460938 212.511719 72.484375 C 214.125 72.523438 215.679688 72.835938 217.183594 73.425781 C 218.671875 74.007812 220.011719 74.835938 221.199219 75.910156 C 222.382812 76.964844 223.324219 78.207031 224.03125 79.636719 C 224.738281 81.0625 225.15625 82.566406 225.285156 84.15625 Z M 225.285156 84.15625 " fill-opacity="1" fill-rule="nonzero"/></g><g clip-path="url(#882b85e161)"><path fill="#ffffff" d="M 115.710938 84.15625 C 115.925781 82.519531 115.757812 80.917969 115.210938 79.359375 C 114.640625 77.738281 113.757812 76.308594 112.566406 75.078125 C 111.324219 73.789062 109.886719 72.792969 108.246094 72.089844 C 107.414062 71.734375 106.558594 71.457031 105.671875 71.265625 C 103.878906 70.875 102.074219 70.832031 100.261719 71.128906 C 99.371094 71.277344 98.5 71.511719 97.652344 71.828125 C 95.980469 72.445312 94.492188 73.367188 93.1875 74.59375 C 91.941406 75.765625 90.992188 77.148438 90.339844 78.738281 C 89.71875 80.269531 89.476562 81.859375 89.609375 83.507812 C 89.816406 81.929688 90.308594 80.445312 91.085938 79.054688 C 91.859375 77.664062 92.863281 76.472656 94.09375 75.472656 C 95.988281 73.9375 98.140625 72.988281 100.542969 72.632812 C 101.335938 72.511719 102.136719 72.460938 102.9375 72.484375 C 104.550781 72.523438 106.105469 72.835938 107.609375 73.425781 C 109.097656 74.007812 110.433594 74.835938 111.625 75.910156 C 112.804688 76.964844 113.75 78.207031 114.457031 79.636719 C 115.160156 81.0625 115.578125 82.566406 115.710938 84.15625 Z M 115.710938 84.15625 " fill-opacity="1" fill-rule="nonzero"/></g><g clip-path="url(#9a87bf11f7)"><path fill="#ffffff" d="M 229.230469 45.714844 C 229.726562 45.214844 229.972656 44.609375 229.964844 43.902344 C 229.964844 42.570312 228.996094 41.484375 227.800781 41.484375 C 226.605469 41.484375 225.632812 42.570312 225.632812 43.902344 C 225.628906 44.609375 225.871094 45.214844 226.367188 45.714844 L 226.367188 56.972656 C 226.367188 57.183594 226.519531 57.351562 226.710938 57.351562 L 228.890625 57.351562 C 229.078125 57.351562 229.230469 57.183594 229.230469 56.972656 Z M 227.050781 56.589844 L 227.050781 46.167969 C 227.550781 46.382812 228.050781 46.382812 228.550781 46.167969 L 228.550781 56.589844 Z M 227.800781 42.246094 C 228.621094 42.246094 229.285156 42.988281 229.285156 43.902344 C 229.285156 44.816406 228.621094 45.5625 227.800781 45.5625 C 226.984375 45.5625 226.316406 44.816406 226.316406 43.902344 C 226.316406 42.988281 226.980469 42.246094 227.800781 42.246094 Z M 227.800781 42.246094 " fill-opacity="1" fill-rule="nonzero"/></g><g clip-path="url(#fea20a9eda)"><path fill="#ffffff" d="M 234.519531 37.925781 C 234.308594 37.933594 234.132812 38.015625 233.996094 38.179688 C 233.855469 38.347656 233.785156 38.546875 233.785156 38.769531 C 233.789062 38.992188 233.863281 39.1875 234.011719 39.351562 C 235.09375 40.527344 235.691406 42.101562 235.691406 43.785156 C 235.691406 45.46875 235.09375 47.042969 234.011719 48.21875 C 233.863281 48.386719 233.789062 48.578125 233.785156 48.804688 C 233.785156 49.027344 233.855469 49.222656 233.996094 49.390625 C 234.132812 49.554688 234.308594 49.640625 234.519531 49.644531 L 234.53125 49.644531 C 234.738281 49.640625 234.910156 49.5625 235.046875 49.410156 C 236.417969 47.917969 237.175781 45.921875 237.175781 43.785156 C 237.175781 41.648438 236.417969 39.652344 235.046875 38.164062 C 234.90625 38.007812 234.726562 37.929688 234.519531 37.925781 Z M 234.53125 49.03125 L 234.527344 49.03125 C 234.46875 49.03125 234.425781 49.007812 234.386719 48.964844 C 234.300781 48.859375 234.300781 48.753906 234.390625 48.652344 C 235.582031 47.363281 236.234375 45.632812 236.234375 43.785156 C 236.234375 41.933594 235.582031 40.207031 234.390625 38.914062 C 234.300781 38.8125 234.300781 38.710938 234.386719 38.605469 C 234.421875 38.558594 234.46875 38.539062 234.527344 38.539062 L 234.53125 38.539062 C 234.585938 38.539062 234.632812 38.558594 234.667969 38.601562 C 235.933594 39.972656 236.632812 41.816406 236.632812 43.785156 C 236.632812 45.753906 235.933594 47.597656 234.667969 48.972656 C 234.632812 49.011719 234.585938 49.03125 234.53125 49.03125 Z M 234.53125 49.03125 " fill-opacity="1" fill-rule="nonzero"/></g><path fill="#ffffff" d="M 231.011719 46.972656 C 231.011719 47.191406 231.078125 47.378906 231.21875 47.546875 C 231.355469 47.710938 231.527344 47.792969 231.738281 47.800781 L 231.753906 47.800781 C 231.960938 47.800781 232.132812 47.722656 232.269531 47.570312 C 233.207031 46.574219 233.722656 45.226562 233.722656 43.785156 C 233.722656 42.339844 233.203125 40.996094 232.269531 39.996094 C 232.125 39.839844 231.949219 39.765625 231.738281 39.769531 C 231.527344 39.773438 231.355469 39.859375 231.21875 40.023438 C 231.074219 40.195312 231.007812 40.390625 231.011719 40.617188 C 231.015625 40.839844 231.089844 41.035156 231.242188 41.195312 C 231.882812 41.878906 232.234375 42.796875 232.234375 43.785156 C 232.234375 44.769531 231.882812 45.691406 231.242188 46.371094 C 231.085938 46.542969 231.011719 46.742188 231.011719 46.972656 Z M 231.617188 46.8125 C 232.367188 46.015625 232.777344 44.9375 232.777344 43.785156 C 232.777344 42.632812 232.367188 41.554688 231.617188 40.757812 C 231.527344 40.65625 231.523438 40.550781 231.613281 40.445312 C 231.648438 40.402344 231.695312 40.378906 231.75 40.375 L 231.753906 40.375 C 231.808594 40.378906 231.855469 40.398438 231.890625 40.4375 C 232.71875 41.320312 233.175781 42.507812 233.175781 43.785156 C 233.175781 45.0625 232.71875 46.25 231.890625 47.132812 C 231.855469 47.175781 231.808594 47.195312 231.75 47.191406 C 231.695312 47.191406 231.648438 47.167969 231.613281 47.125 C 231.574219 47.078125 231.558594 47.027344 231.558594 46.972656 C 231.558594 46.910156 231.578125 46.859375 231.617188 46.8125 Z M 231.617188 46.8125 " fill-opacity="1" fill-rule="nonzero"/><g clip-path="url(#e29bdf8c7d)"><path fill="#ffffff" d="M 221.085938 49.640625 C 221.300781 49.640625 221.480469 49.554688 221.617188 49.386719 C 221.761719 49.21875 221.832031 49.023438 221.828125 48.800781 C 221.824219 48.578125 221.75 48.382812 221.605469 48.214844 C 220.519531 47.039062 219.925781 45.464844 219.925781 43.78125 C 219.925781 42.097656 220.519531 40.523438 221.605469 39.347656 C 221.75 39.183594 221.824219 38.988281 221.828125 38.765625 C 221.832031 38.542969 221.761719 38.34375 221.617188 38.175781 C 221.554688 38.097656 221.476562 38.035156 221.386719 37.992188 C 221.292969 37.949219 221.199219 37.925781 221.097656 37.925781 C 220.996094 37.921875 220.898438 37.941406 220.808594 37.984375 C 220.714844 38.023438 220.636719 38.082031 220.570312 38.160156 C 219.195312 39.652344 218.441406 41.648438 218.441406 43.785156 C 218.441406 45.921875 219.195312 47.917969 220.570312 49.40625 C 220.707031 49.5625 220.878906 49.640625 221.085938 49.640625 Z M 221.085938 38.539062 C 221.144531 38.539062 221.191406 38.5625 221.226562 38.605469 C 221.316406 38.710938 221.3125 38.8125 221.222656 38.917969 C 220.035156 40.207031 219.378906 41.9375 219.378906 43.785156 C 219.378906 45.632812 220.035156 47.363281 221.222656 48.652344 C 221.316406 48.757812 221.316406 48.859375 221.226562 48.964844 C 221.191406 49.007812 221.144531 49.03125 221.089844 49.03125 C 221.03125 49.035156 220.984375 49.011719 220.949219 48.96875 C 219.683594 47.59375 218.984375 45.753906 218.984375 43.785156 C 218.984375 41.816406 219.683594 39.972656 220.949219 38.597656 C 220.984375 38.558594 221.03125 38.539062 221.085938 38.539062 Z M 221.085938 38.539062 " fill-opacity="1" fill-rule="nonzero"/></g><path fill="#ffffff" d="M 223.347656 47.570312 C 223.484375 47.722656 223.65625 47.800781 223.859375 47.800781 L 223.878906 47.800781 C 224.089844 47.792969 224.261719 47.710938 224.398438 47.546875 C 224.539062 47.375 224.609375 47.175781 224.605469 46.953125 C 224.597656 46.730469 224.523438 46.539062 224.375 46.371094 C 223.734375 45.691406 223.382812 44.769531 223.382812 43.785156 C 223.382812 42.800781 223.734375 41.878906 224.375 41.195312 C 224.523438 41.03125 224.597656 40.839844 224.601562 40.617188 C 224.609375 40.390625 224.539062 40.195312 224.398438 40.023438 C 224.261719 39.859375 224.089844 39.773438 223.878906 39.769531 C 223.667969 39.761719 223.488281 39.839844 223.347656 39.996094 C 222.410156 40.996094 221.894531 42.339844 221.894531 43.785156 C 221.894531 45.230469 222.410156 46.574219 223.347656 47.570312 Z M 223.859375 40.375 L 223.867188 40.375 C 223.921875 40.378906 223.96875 40.402344 224.003906 40.445312 C 224.042969 40.492188 224.058594 40.542969 224.058594 40.601562 C 224.058594 40.660156 224.035156 40.710938 223.996094 40.757812 C 223.25 41.554688 222.835938 42.628906 222.835938 43.785156 C 222.835938 44.9375 223.25 46.011719 223.996094 46.8125 C 224.089844 46.914062 224.089844 47.019531 224.003906 47.125 C 223.96875 47.167969 223.921875 47.191406 223.863281 47.191406 C 223.808594 47.195312 223.761719 47.171875 223.722656 47.132812 C 222.898438 46.25 222.441406 45.058594 222.441406 43.785156 C 222.441406 42.507812 222.898438 41.320312 223.722656 40.4375 C 223.761719 40.398438 223.804688 40.378906 223.859375 40.375 Z M 223.859375 40.375 " fill-opacity="1" fill-rule="nonzero"/><g fill="#ffffff" fill-opacity="1"><g transform="translate(71.361765, 101.56643)"><g><path d="M 6.90625 0 L 6.90625 -22.144531 L 2.476562 -22.144531 L 2.476562 0 Z M 6.90625 0 "/></g></g></g><g fill="#ffffff" fill-opacity="1"><g transform="translate(85.671322, 101.56643)"><g><path d="M 6.90625 -12.046875 L 18.121094 0.464844 L 19.296875 0.464844 L 19.296875 -22.113281 L 14.835938 -22.113281 L 14.835938 -9.601562 L 3.65625 -22.609375 L 2.476562 -22.609375 L 2.476562 0 L 6.90625 0 Z M 6.90625 -12.046875 "/></g></g></g><g fill="#ffffff" fill-opacity="1"><g transform="translate(112.369587, 101.56643)"><g><path d="M 12.636719 -12.761719 L 3.902344 -22.488281 L 2.476562 -22.488281 L 2.476562 0 L 6.96875 0 L 6.96875 -12.359375 L 12.636719 -6.410156 L 18.304688 -12.359375 L 18.273438 0 L 22.765625 0 L 22.765625 -22.488281 L 21.371094 -22.488281 Z M 12.636719 -12.761719 "/></g></g></g><g fill="#ffffff" fill-opacity="1"><g transform="translate(142.536686, 101.56643)"><g><path d="M 13.132812 0.308594 C 28.371094 0.308594 28.371094 -22.515625 13.132812 -22.515625 C -2.105469 -22.515625 -2.105469 0.308594 13.132812 0.308594 Z M 13.132812 -4.273438 C 4.273438 -4.273438 4.273438 -17.964844 13.132812 -17.964844 C 21.992188 -17.964844 21.992188 -4.273438 13.132812 -4.273438 Z M 13.132812 -4.273438 "/></g></g></g><g fill="#ffffff" fill-opacity="1"><g transform="translate(173.66391, 101.56643)"><g><path d="M 9.355469 0.464844 L 10.34375 0.464844 L 19.511719 -22.144531 L 14.402344 -22.144531 L 11.429688 -14.621094 L 9.847656 -10.191406 L 8.238281 -14.773438 L 5.296875 -22.144531 L 0.1875 -22.144531 Z M 9.355469 0.464844 "/></g></g></g><g fill="#ffffff" fill-opacity="1"><g transform="translate(198.287078, 101.56643)"><g><path d="M 0.496094 0 L 5.511719 0 L 6.378906 -2.386719 L 13.722656 -2.386719 L 14.621094 0 L 19.605469 0 L 10.28125 -22.949219 L 9.820312 -22.949219 Z M 7.992188 -6.535156 L 10.066406 -12.296875 L 12.078125 -6.535156 Z M 7.992188 -6.535156 "/></g></g></g><g fill="#ffffff" fill-opacity="1"><g transform="translate(223.405785, 101.56643)"><g><path d="M 2.476562 -22.144531 L 2.476562 0 L 13.9375 0 L 13.9375 -4.429688 L 6.90625 -4.429688 L 6.90625 -22.144531 Z M 2.476562 -22.144531 "/></g></g></g><g fill="#ffffff" fill-opacity="1"><g transform="translate(74.375372, 116.454716)"><g><path d="M 2.390625 -3.75 L 2.890625 -3.75 C 3.347656 -3.75 3.691406 -3.835938 3.921875 -4.015625 C 4.148438 -4.203125 4.265625 -4.472656 4.265625 -4.828125 C 4.265625 -5.171875 4.164062 -5.425781 3.96875 -5.59375 C 3.78125 -5.769531 3.484375 -5.859375 3.078125 -5.859375 L 2.390625 -5.859375 Z M 5.78125 -4.875 C 5.78125 -4.113281 5.539062 -3.53125 5.0625 -3.125 C 4.59375 -2.71875 3.914062 -2.515625 3.03125 -2.515625 L 2.390625 -2.515625 L 2.390625 0 L 0.890625 0 L 0.890625 -7.078125 L 3.15625 -7.078125 C 4.007812 -7.078125 4.660156 -6.890625 5.109375 -6.515625 C 5.554688 -6.148438 5.78125 -5.601562 5.78125 -4.875 Z M 5.78125 -4.875 "/></g></g></g><g fill="#ffffff" fill-opacity="1"><g transform="translate(82.171081, 116.454716)"><g><path d="M 2.390625 -3.9375 L 2.875 -3.9375 C 3.351562 -3.9375 3.703125 -4.015625 3.921875 -4.171875 C 4.148438 -4.328125 4.265625 -4.578125 4.265625 -4.921875 C 4.265625 -5.253906 4.148438 -5.492188 3.921875 -5.640625 C 3.691406 -5.785156 3.332031 -5.859375 2.84375 -5.859375 L 2.390625 -5.859375 Z M 2.390625 -2.71875 L 2.390625 0 L 0.890625 0 L 0.890625 -7.078125 L 2.953125 -7.078125 C 3.921875 -7.078125 4.632812 -6.898438 5.09375 -6.546875 C 5.550781 -6.203125 5.78125 -5.675781 5.78125 -4.96875 C 5.78125 -4.550781 5.664062 -4.175781 5.4375 -3.84375 C 5.207031 -3.519531 4.882812 -3.269531 4.46875 -3.09375 C 5.53125 -1.5 6.222656 -0.46875 6.546875 0 L 4.890625 0 L 3.1875 -2.71875 Z M 2.390625 -2.71875 "/></g></g></g><g fill="#ffffff" fill-opacity="1"><g transform="translate(90.286412, 116.454716)"><g><path d="M 7.3125 -3.546875 C 7.3125 -2.378906 7.019531 -1.476562 6.4375 -0.84375 C 5.863281 -0.21875 5.035156 0.09375 3.953125 0.09375 C 2.867188 0.09375 2.035156 -0.21875 1.453125 -0.84375 C 0.867188 -1.476562 0.578125 -2.382812 0.578125 -3.5625 C 0.578125 -4.738281 0.867188 -5.632812 1.453125 -6.25 C 2.035156 -6.875 2.867188 -7.1875 3.953125 -7.1875 C 5.046875 -7.1875 5.878906 -6.875 6.453125 -6.25 C 7.023438 -5.625 7.3125 -4.722656 7.3125 -3.546875 Z M 2.15625 -3.546875 C 2.15625 -2.753906 2.300781 -2.15625 2.59375 -1.75 C 2.894531 -1.351562 3.347656 -1.15625 3.953125 -1.15625 C 5.148438 -1.15625 5.75 -1.953125 5.75 -3.546875 C 5.75 -5.140625 5.148438 -5.9375 3.953125 -5.9375 C 3.359375 -5.9375 2.910156 -5.734375 2.609375 -5.328125 C 2.304688 -4.929688 2.15625 -4.335938 2.15625 -3.546875 Z M 2.15625 -3.546875 "/></g></g></g><g fill="#ffffff" fill-opacity="1"><g transform="translate(99.74803, 116.454716)"><g><path d="M 3.578125 -3.984375 L 6.390625 -3.984375 L 6.390625 -0.3125 C 5.929688 -0.15625 5.5 -0.0507812 5.09375 0 C 4.695312 0.0625 4.289062 0.09375 3.875 0.09375 C 2.800781 0.09375 1.984375 -0.21875 1.421875 -0.84375 C 0.859375 -1.46875 0.578125 -2.367188 0.578125 -3.546875 C 0.578125 -4.691406 0.898438 -5.582031 1.546875 -6.21875 C 2.203125 -6.863281 3.113281 -7.1875 4.28125 -7.1875 C 5.007812 -7.1875 5.707031 -7.039062 6.375 -6.75 L 5.875 -5.546875 C 5.363281 -5.804688 4.828125 -5.9375 4.265625 -5.9375 C 3.617188 -5.9375 3.097656 -5.71875 2.703125 -5.28125 C 2.316406 -4.84375 2.125 -4.253906 2.125 -3.515625 C 2.125 -2.753906 2.28125 -2.171875 2.59375 -1.765625 C 2.90625 -1.359375 3.363281 -1.15625 3.96875 -1.15625 C 4.28125 -1.15625 4.597656 -1.1875 4.921875 -1.25 L 4.921875 -2.734375 L 3.578125 -2.734375 Z M 3.578125 -3.984375 "/></g></g></g><g fill="#ffffff" fill-opacity="1"><g transform="translate(108.497769, 116.454716)"><g><path d="M 2.390625 -3.9375 L 2.875 -3.9375 C 3.351562 -3.9375 3.703125 -4.015625 3.921875 -4.171875 C 4.148438 -4.328125 4.265625 -4.578125 4.265625 -4.921875 C 4.265625 -5.253906 4.148438 -5.492188 3.921875 -5.640625 C 3.691406 -5.785156 3.332031 -5.859375 2.84375 -5.859375 L 2.390625 -5.859375 Z M 2.390625 -2.71875 L 2.390625 0 L 0.890625 0 L 0.890625 -7.078125 L 2.953125 -7.078125 C 3.921875 -7.078125 4.632812 -6.898438 5.09375 -6.546875 C 5.550781 -6.203125 5.78125 -5.675781 5.78125 -4.96875 C 5.78125 -4.550781 5.664062 -4.175781 5.4375 -3.84375 C 5.207031 -3.519531 4.882812 -3.269531 4.46875 -3.09375 C 5.53125 -1.5 6.222656 -0.46875 6.546875 0 L 4.890625 0 L 3.1875 -2.71875 Z M 2.390625 -2.71875 "/></g></g></g><g fill="#ffffff" fill-opacity="1"><g transform="translate(116.613101, 116.454716)"><g><path d="M 5.234375 0 L 4.71875 -1.6875 L 2.125 -1.6875 L 1.625 0 L 0 0 L 2.5 -7.109375 L 4.34375 -7.109375 L 6.84375 0 Z M 4.359375 -2.953125 C 3.878906 -4.472656 3.609375 -5.332031 3.546875 -5.53125 C 3.492188 -5.738281 3.453125 -5.898438 3.421875 -6.015625 C 3.316406 -5.597656 3.015625 -4.578125 2.515625 -2.953125 Z M 4.359375 -2.953125 "/></g></g></g><g fill="#ffffff" fill-opacity="1"><g transform="translate(125.023844, 116.454716)"><g><path d="M 3.890625 0 L 2.1875 -5.5625 L 2.140625 -5.5625 C 2.203125 -4.425781 2.234375 -3.671875 2.234375 -3.296875 L 2.234375 0 L 0.890625 0 L 0.890625 -7.078125 L 2.9375 -7.078125 L 4.609375 -1.671875 L 4.640625 -1.671875 L 6.421875 -7.078125 L 8.46875 -7.078125 L 8.46875 0 L 7.0625 0 L 7.0625 -3.359375 C 7.0625 -3.515625 7.0625 -3.691406 7.0625 -3.890625 C 7.070312 -4.097656 7.097656 -4.648438 7.140625 -5.546875 L 7.09375 -5.546875 L 5.265625 0 Z M 3.890625 0 "/></g></g></g><g fill="#ffffff" fill-opacity="1"><g transform="translate(135.943137, 116.454716)"><g><path d="M 5.234375 0 L 4.71875 -1.6875 L 2.125 -1.6875 L 1.625 0 L 0 0 L 2.5 -7.109375 L 4.34375 -7.109375 L 6.84375 0 Z M 4.359375 -2.953125 C 3.878906 -4.472656 3.609375 -5.332031 3.546875 -5.53125 C 3.492188 -5.738281 3.453125 -5.898438 3.421875 -6.015625 C 3.316406 -5.597656 3.015625 -4.578125 2.515625 -2.953125 Z M 4.359375 -2.953125 "/></g></g></g><g fill="#ffffff" fill-opacity="1"><g transform="translate(144.35388, 116.454716)"><g><path d="M 3.90625 -5.9375 C 3.332031 -5.9375 2.890625 -5.722656 2.578125 -5.296875 C 2.273438 -4.867188 2.125 -4.273438 2.125 -3.515625 C 2.125 -1.941406 2.71875 -1.15625 3.90625 -1.15625 C 4.394531 -1.15625 4.992188 -1.28125 5.703125 -1.53125 L 5.703125 -0.265625 C 5.117188 -0.0234375 4.472656 0.09375 3.765625 0.09375 C 2.734375 0.09375 1.941406 -0.21875 1.390625 -0.84375 C 0.847656 -1.46875 0.578125 -2.363281 0.578125 -3.53125 C 0.578125 -4.269531 0.707031 -4.914062 0.96875 -5.46875 C 1.238281 -6.019531 1.625 -6.441406 2.125 -6.734375 C 2.632812 -7.035156 3.226562 -7.1875 3.90625 -7.1875 C 4.59375 -7.1875 5.28125 -7.019531 5.96875 -6.6875 L 5.484375 -5.46875 C 5.222656 -5.59375 4.957031 -5.703125 4.6875 -5.796875 C 4.414062 -5.890625 4.15625 -5.9375 3.90625 -5.9375 Z M 3.90625 -5.9375 "/></g></g></g><g fill="#ffffff" fill-opacity="1"><g transform="translate(152.241605, 116.454716)"><g><path d="M 0.890625 0 L 0.890625 -7.078125 L 2.390625 -7.078125 L 2.390625 0 Z M 0.890625 0 "/></g></g></g><g fill="#ffffff" fill-opacity="1"><g transform="translate(157.092913, 116.454716)"><g><path d="M 7.3125 -3.546875 C 7.3125 -2.378906 7.019531 -1.476562 6.4375 -0.84375 C 5.863281 -0.21875 5.035156 0.09375 3.953125 0.09375 C 2.867188 0.09375 2.035156 -0.21875 1.453125 -0.84375 C 0.867188 -1.476562 0.578125 -2.382812 0.578125 -3.5625 C 0.578125 -4.738281 0.867188 -5.632812 1.453125 -6.25 C 2.035156 -6.875 2.867188 -7.1875 3.953125 -7.1875 C 5.046875 -7.1875 5.878906 -6.875 6.453125 -6.25 C 7.023438 -5.625 7.3125 -4.722656 7.3125 -3.546875 Z M 2.15625 -3.546875 C 2.15625 -2.753906 2.300781 -2.15625 2.59375 -1.75 C 2.894531 -1.351562 3.347656 -1.15625 3.953125 -1.15625 C 5.148438 -1.15625 5.75 -1.953125 5.75 -3.546875 C 5.75 -5.140625 5.148438 -5.9375 3.953125 -5.9375 C 3.359375 -5.9375 2.910156 -5.734375 2.609375 -5.328125 C 2.304688 -4.929688 2.15625 -4.335938 2.15625 -3.546875 Z M 3.1875 -7.65625 L 3.1875 -7.78125 C 3.738281 -8.425781 4.117188 -8.910156 4.328125 -9.234375 L 5.984375 -9.234375 L 5.984375 -9.140625 C 5.816406 -8.972656 5.53125 -8.722656 5.125 -8.390625 C 4.71875 -8.054688 4.398438 -7.8125 4.171875 -7.65625 Z M 3.1875 -7.65625 "/></g></g></g><g fill="#ffffff" fill-opacity="1"><g transform="translate(166.55453, 116.454716)"><g><path d="M 7.171875 0 L 5.265625 0 L 2.1875 -5.359375 L 2.140625 -5.359375 C 2.203125 -4.410156 2.234375 -3.734375 2.234375 -3.328125 L 2.234375 0 L 0.890625 0 L 0.890625 -7.078125 L 2.78125 -7.078125 L 5.859375 -1.78125 L 5.890625 -1.78125 C 5.847656 -2.695312 5.828125 -3.347656 5.828125 -3.734375 L 5.828125 -7.078125 L 7.171875 -7.078125 Z M 7.171875 0 "/></g></g></g><g fill="#ffffff" fill-opacity="1"><g transform="translate(176.185648, 116.454716)"><g/></g></g><g fill="#ffffff" fill-opacity="1"><g transform="translate(180.329919, 116.454716)"><g><path d="M 6.765625 -3.609375 C 6.765625 -2.441406 6.429688 -1.546875 5.765625 -0.921875 C 5.109375 -0.304688 4.148438 0 2.890625 0 L 0.890625 0 L 0.890625 -7.078125 L 3.109375 -7.078125 C 4.265625 -7.078125 5.160156 -6.769531 5.796875 -6.15625 C 6.441406 -5.550781 6.765625 -4.703125 6.765625 -3.609375 Z M 5.203125 -3.578125 C 5.203125 -5.097656 4.53125 -5.859375 3.1875 -5.859375 L 2.390625 -5.859375 L 2.390625 -1.234375 L 3.03125 -1.234375 C 4.476562 -1.234375 5.203125 -2.015625 5.203125 -3.578125 Z M 5.203125 -3.578125 "/></g></g></g><g fill="#ffffff" fill-opacity="1"><g transform="translate(189.239467, 116.454716)"><g><path d="M 4.96875 0 L 0.890625 0 L 0.890625 -7.078125 L 4.96875 -7.078125 L 4.96875 -5.859375 L 2.390625 -5.859375 L 2.390625 -4.296875 L 4.796875 -4.296875 L 4.796875 -3.0625 L 2.390625 -3.0625 L 2.390625 -1.234375 L 4.96875 -1.234375 Z M 4.96875 0 "/></g></g></g><g fill="#ffffff" fill-opacity="1"><g transform="translate(196.362041, 116.454716)"><g/></g></g><g fill="#ffffff" fill-opacity="1"><g transform="translate(200.506312, 116.454716)"><g><path d="M 3.90625 -5.9375 C 3.332031 -5.9375 2.890625 -5.722656 2.578125 -5.296875 C 2.273438 -4.867188 2.125 -4.273438 2.125 -3.515625 C 2.125 -1.941406 2.71875 -1.15625 3.90625 -1.15625 C 4.394531 -1.15625 4.992188 -1.28125 5.703125 -1.53125 L 5.703125 -0.265625 C 5.117188 -0.0234375 4.472656 0.09375 3.765625 0.09375 C 2.734375 0.09375 1.941406 -0.21875 1.390625 -0.84375 C 0.847656 -1.46875 0.578125 -2.363281 0.578125 -3.53125 C 0.578125 -4.269531 0.707031 -4.914062 0.96875 -5.46875 C 1.238281 -6.019531 1.625 -6.441406 2.125 -6.734375 C 2.632812 -7.035156 3.226562 -7.1875 3.90625 -7.1875 C 4.59375 -7.1875 5.28125 -7.019531 5.96875 -6.6875 L 5.484375 -5.46875 C 5.222656 -5.59375 4.957031 -5.703125 4.6875 -5.796875 C 4.414062 -5.890625 4.15625 -5.9375 3.90625 -5.9375 Z M 3.90625 -5.9375 "/></g></g></g><g fill="#ffffff" fill-opacity="1"><g transform="translate(208.394043, 116.454716)"><g><path d="M 6.703125 0 L 5.203125 0 L 5.203125 -3.0625 L 2.390625 -3.0625 L 2.390625 0 L 0.890625 0 L 0.890625 -7.078125 L 2.390625 -7.078125 L 2.390625 -4.3125 L 5.203125 -4.3125 L 5.203125 -7.078125 L 6.703125 -7.078125 Z M 6.703125 0 "/></g></g></g><g fill="#ffffff" fill-opacity="1"><g transform="translate(217.550577, 116.454716)"><g><path d="M 0.890625 0 L 0.890625 -7.078125 L 2.390625 -7.078125 L 2.390625 0 Z M 0.890625 0 "/></g></g></g><g fill="#ffffff" fill-opacity="1"><g transform="translate(222.401891, 116.454716)"><g><path d="M 2.390625 -3.75 L 2.890625 -3.75 C 3.347656 -3.75 3.691406 -3.835938 3.921875 -4.015625 C 4.148438 -4.203125 4.265625 -4.472656 4.265625 -4.828125 C 4.265625 -5.171875 4.164062 -5.425781 3.96875 -5.59375 C 3.78125 -5.769531 3.484375 -5.859375 3.078125 -5.859375 L 2.390625 -5.859375 Z M 5.78125 -4.875 C 5.78125 -4.113281 5.539062 -3.53125 5.0625 -3.125 C 4.59375 -2.71875 3.914062 -2.515625 3.03125 -2.515625 L 2.390625 -2.515625 L 2.390625 0 L 0.890625 0 L 0.890625 -7.078125 L 3.15625 -7.078125 C 4.007812 -7.078125 4.660156 -6.890625 5.109375 -6.515625 C 5.554688 -6.148438 5.78125 -5.601562 5.78125 -4.875 Z M 5.78125 -4.875 "/></g></g></g><g fill="#ffffff" fill-opacity="1"><g transform="translate(230.197603, 116.454716)"><g><path d="M 5.078125 -1.96875 C 5.078125 -1.320312 4.84375 -0.816406 4.375 -0.453125 C 3.914062 -0.0859375 3.28125 0.09375 2.46875 0.09375 C 1.707031 0.09375 1.035156 -0.046875 0.453125 -0.328125 L 0.453125 -1.71875 C 0.929688 -1.507812 1.335938 -1.359375 1.671875 -1.265625 C 2.003906 -1.179688 2.304688 -1.140625 2.578125 -1.140625 C 2.910156 -1.140625 3.160156 -1.203125 3.328125 -1.328125 C 3.503906 -1.453125 3.59375 -1.640625 3.59375 -1.890625 C 3.59375 -2.035156 3.550781 -2.160156 3.46875 -2.265625 C 3.394531 -2.367188 3.285156 -2.472656 3.140625 -2.578125 C 2.992188 -2.679688 2.6875 -2.84375 2.21875 -3.0625 C 1.789062 -3.257812 1.46875 -3.453125 1.25 -3.640625 C 1.03125 -3.828125 0.851562 -4.046875 0.71875 -4.296875 C 0.59375 -4.546875 0.53125 -4.835938 0.53125 -5.171875 C 0.53125 -5.796875 0.742188 -6.285156 1.171875 -6.640625 C 1.597656 -7.003906 2.1875 -7.1875 2.9375 -7.1875 C 3.300781 -7.1875 3.648438 -7.140625 3.984375 -7.046875 C 4.316406 -6.960938 4.664062 -6.84375 5.03125 -6.6875 L 4.546875 -5.515625 C 4.171875 -5.671875 3.859375 -5.78125 3.609375 -5.84375 C 3.367188 -5.90625 3.128906 -5.9375 2.890625 -5.9375 C 2.609375 -5.9375 2.390625 -5.867188 2.234375 -5.734375 C 2.078125 -5.597656 2 -5.425781 2 -5.21875 C 2 -5.082031 2.03125 -4.960938 2.09375 -4.859375 C 2.15625 -4.765625 2.253906 -4.671875 2.390625 -4.578125 C 2.523438 -4.492188 2.84375 -4.332031 3.34375 -4.09375 C 4.007812 -3.769531 4.460938 -3.445312 4.703125 -3.125 C 4.953125 -2.8125 5.078125 -2.425781 5.078125 -1.96875 Z M 5.078125 -1.96875 "/></g></g></g></svg>